<svg  viewBox="0 0 128 128"  xmlns="http://www.w3.org/2000/svg">
<path d="M103.906 79.7862C105.365 81.2447 105.365 83.6089 103.906 85.0675L66.5573 122.416H61.2759L23.9272 85.0675C22.4686 83.6089 22.4686 81.2447 23.9272 79.7861C25.3857 78.3276 27.75 78.3276 29.2085 79.7861L63.9166 114.494L98.6247 79.7862C100.083 78.3276 102.448 78.3276 103.906 79.7862Z" />
<path d="M60.1825 7.73488C60.1825 5.67216 61.8546 4 63.9173 4C65.9801 4 67.6522 5.67216 67.6522 7.73488L67.6522 119.781C67.6522 121.844 65.98 123.516 63.9173 123.516C61.8546 123.516 60.1824 121.844 60.1824 119.781L60.1825 7.73488Z" />
</svg>
