<svg viewBox="0 0 32 32"  xmlns="http://www.w3.org/2000/svg">
<path d="M21.9359 3H10.0641C8.72103 3.00013 7.43306 3.50582 6.48339 4.40585C5.53372 5.30588 5.00014 6.52655 5 7.79938V22.0056C4.9996 22.2758 5.05544 22.5435 5.16436 22.7932C5.27327 23.0429 5.43312 23.2698 5.63472 23.4608C5.83632 23.6519 6.07573 23.8034 6.33921 23.9066C6.60269 24.0098 6.88506 24.0628 7.17016 24.0624H8.67503L7.24244 26.5718C7.17762 26.6831 7.13666 26.8054 7.12196 26.9317C7.10726 27.0579 7.11911 27.1858 7.1568 27.3077C7.19449 27.4296 7.25729 27.5433 7.34158 27.6421C7.42586 27.7409 7.52998 27.8229 7.64788 27.8834C7.79707 27.9587 7.96323 27.9987 8.13224 28C8.31665 27.9999 8.49756 27.9522 8.65563 27.8622C8.8137 27.7722 8.94301 27.6432 9.02974 27.489L10.9974 24.0609H21.0005L22.9703 27.489C23.0574 27.6426 23.1868 27.7709 23.3447 27.8603C23.5027 27.9497 23.6833 27.9968 23.8673 27.9966C24.0363 27.9945 24.2025 27.9545 24.3521 27.88C24.4701 27.8196 24.5742 27.7376 24.6586 27.6388C24.7429 27.5399 24.8057 27.4263 24.8433 27.3043C24.881 27.1823 24.8927 27.0545 24.8779 26.9282C24.8631 26.8019 24.822 26.6796 24.7571 26.5684L23.325 24.059H24.8293C25.1145 24.0594 25.3969 24.0064 25.6604 23.9032C25.9239 23.8 26.1633 23.6485 26.365 23.4575C26.5666 23.2664 26.7265 23.0395 26.8354 22.7898C26.9444 22.5401 27.0003 22.2725 27 22.0022V7.79598C26.9989 6.52373 26.4649 5.30394 25.5154 4.40464C24.5658 3.50535 23.2783 3.00013 21.9359 3ZM8.75449 22.0056C8.54641 22.0057 8.34035 21.9669 8.1481 21.8915C7.95586 21.816 7.78118 21.7054 7.63404 21.566C7.48691 21.4266 7.37022 21.261 7.29062 21.0788C7.21103 20.8966 7.1701 20.7013 7.17016 20.5041C7.16969 20.3066 7.21032 20.111 7.28972 19.9283C7.36912 19.7457 7.48572 19.5797 7.63287 19.4399C7.78002 19.3 7.95482 19.189 8.14728 19.1132C8.33974 19.0374 8.54608 18.9984 8.75449 18.9982C8.96337 18.9979 9.17025 19.0367 9.36333 19.1122C9.5564 19.1877 9.73187 19.2986 9.87969 19.4385C10.0275 19.5783 10.1448 19.7444 10.2248 19.9273C10.3048 20.1101 10.346 20.3062 10.346 20.5041C10.3458 20.7018 10.3045 20.8976 10.2244 21.0802C10.1443 21.2627 10.027 21.4285 9.87911 21.568C9.73126 21.7075 9.55581 21.8179 9.36283 21.893C9.16984 21.9681 8.96311 22.0064 8.75449 22.0056ZM23.245 22.0056C23.0364 22.0064 22.8297 21.9681 22.6367 21.893C22.4437 21.8179 22.2682 21.7075 22.1204 21.568C21.9725 21.4285 21.8552 21.2627 21.7751 21.0802C21.695 20.8976 21.6537 20.7018 21.6535 20.5041C21.6535 20.3062 21.6947 20.1101 21.7747 19.9273C21.8547 19.7444 21.972 19.5783 22.1198 19.4385C22.2676 19.2986 22.4431 19.1877 22.6362 19.1122C22.8292 19.0367 23.0361 18.9979 23.245 18.9982C23.4534 18.9984 23.6597 19.0374 23.8522 19.1132C24.0447 19.189 24.2195 19.3 24.3666 19.4399C24.5138 19.5797 24.6304 19.7457 24.7098 19.9283C24.7892 20.111 24.8298 20.3066 24.8293 20.5041C24.8294 20.7013 24.7885 20.8966 24.7089 21.0788C24.6293 21.261 24.5126 21.4266 24.3654 21.566C24.2183 21.7054 24.0436 21.816 23.8514 21.8915C23.6591 21.9669 23.4531 22.0057 23.245 22.0056ZM24.8293 15.5673C24.8294 15.7474 24.792 15.9257 24.7193 16.0921C24.6466 16.2585 24.54 16.4097 24.4057 16.5371C24.2713 16.6644 24.1118 16.7655 23.9362 16.8343C23.7606 16.9032 23.5724 16.9387 23.3824 16.9386H8.61711C8.42708 16.9387 8.23889 16.9032 8.06331 16.8343C7.88773 16.7655 7.7282 16.6644 7.59383 16.5371C7.45945 16.4097 7.35288 16.2585 7.28018 16.0921C7.20749 15.9257 7.1701 15.7474 7.17016 15.5673V7.79938C7.1701 7.61928 7.20749 7.44092 7.28018 7.27452C7.35288 7.10811 7.45945 6.95692 7.59383 6.82957C7.7282 6.70221 7.88773 6.60121 8.06331 6.53231C8.23889 6.46342 8.42708 6.42799 8.61711 6.42806H23.3824C23.5724 6.42799 23.7606 6.46342 23.9362 6.53231C24.1118 6.60121 24.2713 6.70221 24.4057 6.82957C24.54 6.95692 24.6466 7.10811 24.7193 7.27452C24.792 7.44092 24.8294 7.61928 24.8293 7.79938V15.5673Z" />
</svg>
