<svg  viewBox="0 0 32 32" xmlns="http://www.w3.org/2000/svg">
<path d="M29.3927 12.0051C29.5533 12.0051 29.7073 11.9417 29.8209 11.8289C29.9345 11.716 29.9984 11.563 29.9985 11.4033V10.3147C29.9985 10.2356 29.9828 10.1573 29.9524 10.0842C29.9219 10.0111 29.8773 9.94474 29.8211 9.88882C29.7648 9.8329 29.6981 9.78853 29.6246 9.75826C29.5511 9.728 29.4723 9.71242 29.3927 9.71242H26.8254C26.6648 9.71242 26.5107 9.77588 26.3971 9.88882C26.2835 10.0018 26.2197 10.1549 26.2197 10.3147V10.8693L24.6057 7.38444C24.5963 7.36382 24.586 7.34321 24.5751 7.32358C24.1819 6.61947 23.6063 6.03273 22.9082 5.62417C22.2101 5.21562 21.4148 5.00011 20.6047 5H10.3938C9.58371 5.00011 8.78839 5.21562 8.09027 5.62417C7.39216 6.03273 6.81665 6.61947 6.4234 7.32358C6.41254 7.34321 6.40217 7.36382 6.39279 7.38444L4.77885 10.8693V10.3147C4.77885 10.1549 4.71503 10.0018 4.60143 9.88882C4.48782 9.77588 4.33373 9.71242 4.17307 9.71242H1.60578C1.52623 9.71242 1.44744 9.728 1.37395 9.75826C1.30045 9.78853 1.23368 9.8329 1.17743 9.88882C1.12117 9.94474 1.07656 10.0111 1.04612 10.0842C1.01567 10.1573 1 10.2356 1 10.3147V11.4058C1 11.4848 1.01567 11.5631 1.04612 11.6362C1.07657 11.7092 1.12119 11.7756 1.17745 11.8315C1.23371 11.8873 1.3005 11.9317 1.37399 11.9619C1.44749 11.9921 1.52625 12.0076 1.60578 12.0075H4.25057L4.11184 12.3074C3.18089 12.7472 2.39451 13.4405 1.84396 14.3067C1.29341 15.173 1.00126 16.1768 1.00147 17.2015V21.9688C1.00141 22.1269 1.03269 22.2835 1.09353 22.4296C1.15438 22.5757 1.24361 22.7084 1.35608 22.8202C1.46856 22.9319 1.60209 23.0206 1.74905 23.081C1.89601 23.1414 2.05352 23.1725 2.21255 23.1724H3.70009V24.4294C3.6997 24.6354 3.74019 24.8396 3.81923 25.0301C3.89827 25.2206 4.01431 25.3937 4.16073 25.5396C4.30714 25.6855 4.48106 25.8012 4.67252 25.8802C4.86397 25.9592 5.06923 25.9999 5.27652 26H7.26468C7.68345 25.9992 8.08484 25.8335 8.38095 25.5391C8.67707 25.2447 8.84377 24.8457 8.84455 24.4294V23.1724H22.1648V24.4294C22.1644 24.6354 22.2049 24.8396 22.284 25.0301C22.363 25.2206 22.479 25.3937 22.6255 25.5396C22.7719 25.6855 22.9458 25.8012 23.1372 25.8802C23.3287 25.9592 23.534 25.9999 23.7412 26H25.7235C25.9308 26 26.1361 25.9594 26.3276 25.8804C26.5191 25.8014 26.6931 25.6857 26.8396 25.5398C26.986 25.3939 27.1021 25.2207 27.1812 25.0302C27.2603 24.8397 27.3008 24.6355 27.3004 24.4294V23.1724H28.7894C28.9484 23.1724 29.1059 23.1413 29.2528 23.0809C29.3997 23.0204 29.5331 22.9318 29.6456 22.82C29.758 22.7082 29.8472 22.5755 29.908 22.4295C29.9688 22.2834 30.0001 22.1269 30 21.9688V17.2015C30.0002 16.1768 29.7081 15.173 29.1575 14.3067C28.607 13.4405 27.8206 12.7472 26.8896 12.3074L26.7509 12.0075L29.3927 12.0051ZM2.81783 17.5347V16.4898C2.81778 16.3887 2.83908 16.2887 2.88036 16.1963C2.92164 16.1039 2.98199 16.0211 3.05748 15.9534C3.13297 15.8857 3.22194 15.8344 3.3186 15.8031C3.41527 15.7717 3.51748 15.7608 3.61864 15.7712L6.68802 16.0829C7.16951 16.1319 7.61559 16.3568 7.93997 16.7139C8.26435 17.071 8.44397 17.535 8.44414 18.0162C8.44429 18.111 8.42563 18.2049 8.3892 18.2925C8.35277 18.3801 8.29929 18.4597 8.23185 18.5267C8.16447 18.5941 8.0843 18.6475 7.99599 18.6839C7.90769 18.7203 7.81301 18.739 7.71741 18.7387H4.02891C3.70772 18.7387 3.39966 18.6119 3.17254 18.3861C2.94542 18.1603 2.81783 17.854 2.81783 17.5347ZM19.559 21.3632H11.5668C11.3261 21.363 11.0952 21.2679 10.925 21.0986C10.7548 20.9294 10.6591 20.6999 10.6589 20.4605C10.6589 20.2211 10.7546 19.9915 10.9248 19.8221C11.0951 19.6528 11.326 19.5575 11.5668 19.5574H19.559C19.7999 19.5575 20.0308 19.6528 20.201 19.8221C20.3713 19.9915 20.4669 20.2211 20.4669 20.4605C20.467 20.5791 20.4436 20.6966 20.398 20.8062C20.3524 20.9158 20.2856 21.0154 20.2012 21.0993C20.1169 21.1832 20.0168 21.2498 19.9066 21.2952C19.7964 21.3407 19.6783 21.3641 19.559 21.3641V21.3632ZM28.1817 16.4888V17.5337C28.1817 17.853 28.0541 18.1591 27.8271 18.3849C27.6001 18.6107 27.2922 18.7376 26.9711 18.7377H23.2826C23.1869 18.7379 23.0922 18.7193 23.0038 18.6829C22.9154 18.6465 22.8351 18.5931 22.7676 18.5257C22.6317 18.3902 22.5556 18.2066 22.5558 18.0152C22.5558 17.534 22.7353 17.0699 23.0598 16.7127C23.3842 16.3555 23.8304 16.1307 24.312 16.0819L27.3814 15.7702C27.4826 15.7599 27.5848 15.7708 27.6815 15.8023C27.7781 15.8338 27.8671 15.8851 27.9425 15.9529C28.018 16.0208 28.0783 16.1036 28.1195 16.1961C28.1607 16.2886 28.1818 16.3886 28.1817 16.4898V16.4888ZM24.5489 11.7808H6.45055C6.41796 11.7808 6.38587 11.7808 6.3518 11.7808L8.02598 8.16583C8.26417 7.7508 8.6085 7.40576 9.02408 7.1657C9.43965 6.92564 9.91168 6.79909 10.3923 6.79888H20.6057C21.0863 6.79909 21.5584 6.92564 21.9739 7.1657C22.3895 7.40576 22.7339 7.7508 22.972 8.16583L24.6457 11.7808C24.6136 11.7837 24.5815 11.7817 24.5489 11.7817V11.7808Z" />
</svg>
