<svg viewBox="0 0 24 24" >
<path d="M21.0225 7.68555C21.0225 7.28676 20.7147 6.9817 20.3301 6.98145H2.66992C2.28532 6.9817 1.97754 7.28676 1.97754 7.68555V17.3145C1.97754 17.7132 2.28532 18.0183 2.66992 18.0186H20.3301C20.7147 18.0183 21.0225 17.7132 21.0225 17.3145V7.68555ZM4.0957 8.1416C4.10668 8.14184 4.11527 8.14136 4.12012 8.1416L4.11914 8.14355C4.30493 8.1483 4.48287 8.22041 4.61621 8.35059H4.61523L10.9951 14.4326L11.1084 14.5234C11.3849 14.7057 11.7279 14.6751 11.9912 14.4248L18.3896 8.3457L18.3906 8.34473C18.5333 8.21009 18.7241 8.13705 18.9219 8.14355L19.0674 8.16309C19.2093 8.19667 19.3385 8.27159 19.4385 8.37891L19.4395 8.37988C19.5732 8.52413 19.644 8.7146 19.6377 8.90918C19.6313 9.10403 19.5485 9.29048 19.4053 9.42578L19.4043 9.4248L16.0508 12.6133L19.3848 15.5557H19.3838C19.5312 15.6784 19.6269 15.8532 19.6475 16.0449H19.6465C19.6686 16.2493 19.6051 16.4542 19.4697 16.6104C19.3512 16.7471 19.1869 16.8361 19.0078 16.8594L18.9307 16.8652C18.7364 16.8699 18.5505 16.797 18.4102 16.666L14.9727 13.6357L13.0078 15.5029C12.1531 16.3151 10.8317 16.3174 9.97656 15.5029L8.01855 13.6367L4.58984 16.667L4.58887 16.666C4.44869 16.7965 4.26333 16.8699 4.06934 16.8652C3.86076 16.8602 3.66466 16.7665 3.5293 16.6104C3.39396 16.4541 3.33076 16.2487 3.35254 16.0449V16.0439C3.37331 15.8539 3.46694 15.6787 3.61426 15.5557L6.94141 12.6133L3.59375 9.42383V9.42285C3.38309 9.22729 3.30443 8.92777 3.3916 8.6543L3.43164 8.55371C3.54288 8.32656 3.76507 8.1675 4.02441 8.14258L4.03613 8.1416H4.08301V8.14062C4.0872 8.14053 4.09152 8.14163 4.0957 8.1416ZM18.9121 16.123V16.1211L18.9102 16.123H18.9121ZM18.9121 16.123H18.9102L18.9121 16.1211V16.123ZM22.5 17.3145C22.5 18.5157 21.5314 19.4997 20.3301 19.5H2.66992C1.4686 19.4997 0.5 18.5157 0.5 17.3145V7.68555C0.5 6.48432 1.46855 5.50026 2.66992 5.5H20.3301C21.5314 5.50026 22.5 6.48427 22.5 7.68555V17.3145Z" />
</svg>
