<svg viewBox="0 0 24 24" fill="none" xmlns="http://www.w3.org/2000/svg">
<path d="M15.7428 3H15.7322C15.3179 3 14.9825 3.33628 14.9825 3.75008C14.9825 4.16388 15.318 4.50016 15.7322 4.50016H15.7434H18.4311L6.21716 16.7197C6.08127 16.8557 5.99723 17.0429 5.99723 17.2505C5.99723 17.665 6.33335 18.0006 6.74696 18.0006C6.95376 18.0006 7.14156 17.9165 7.27677 17.7812L19.4907 5.56162V8.25058V8.26111C19.4907 8.6756 19.8262 9.01119 20.2404 9.01119C20.6547 9.01119 20.9902 8.67553 20.9902 8.26111V8.24996V3.87216C20.9967 3.83603 21 3.79334 21 3.75065C21 3.33616 20.6645 3.00057 20.2503 3.00057H20.2397L15.7428 3ZM0.74973 7.49987C0.336122 7.49987 0 7.83553 0 8.24995V23.2499C0 23.6644 0.336122 24 0.74973 24H15.7428C16.157 24 16.4925 23.6643 16.4925 23.2499V11.9329V11.9224C16.4925 11.5079 16.157 11.1723 15.7428 11.1723C15.3285 11.1723 14.993 11.508 14.993 11.9224V11.9335V22.4998H1.49897V8.99954H12.1064H12.117C12.5313 8.99954 12.8667 8.66387 12.8667 8.24946C12.8667 7.83498 12.5312 7.49938 12.117 7.49938H12.1058L0.74973 7.49987Z" />
</svg>
