<svg  viewBox="0 0 27 27" fill="none" xmlns="http://www.w3.org/2000/svg">
<path d="M26.7374 10.856H25.65V10.8H13.5V16.2H21.1295C20.0165 19.3435 17.0255 21.6 13.5 21.6C9.02678 21.6 5.4 17.9732 5.4 13.5C5.4 9.02678 9.02678 5.4 13.5 5.4C15.5648 5.4 17.4433 6.17895 18.8737 7.45132L22.6922 3.63285C20.281 1.38577 17.0559 0 13.5 0C6.04463 0 0 6.04463 0 13.5C0 20.9554 6.04463 27 13.5 27C20.9554 27 27 20.9554 27 13.5C27 12.5948 26.9069 11.7113 26.7374 10.856Z" fill="#FFC107"/>
<path d="M1.55664 7.21643L5.99206 10.4693C7.19221 7.4979 10.0988 5.4 13.5001 5.4C15.5649 5.4 17.4434 6.17895 18.8738 7.45133L22.6922 3.63285C20.2811 1.38578 17.056 0 13.5001 0C8.31474 0 3.81789 2.92748 1.55664 7.21643Z" fill="#FF3D00"/>
<path d="M13.5008 26.9999C16.9878 26.9999 20.1563 25.6654 22.5519 23.4953L18.3736 19.9596C17.0182 20.9863 15.3334 21.5999 13.5008 21.5999C9.98945 21.5999 7.00797 19.3609 5.88477 16.2363L1.48242 19.6282C3.71667 24.0002 8.25402 26.9999 13.5008 26.9999Z" fill="#4CAF50"/>
<path d="M26.7374 10.8558H25.65V10.7998H13.5V16.1998H21.1295C20.5949 17.7098 19.6236 19.0119 18.3708 19.9602L18.3728 19.9589L22.5511 23.4945C22.2554 23.7632 27 20.2498 27 13.4998C27 12.5946 26.9068 11.7111 26.7374 10.8558Z" fill="#1976D2"/>
</svg>
