<svg viewBox="0 0 24 24" xmlns="http://www.w3.org/2000/svg">
<path d="M16.8846 3H8.11538C6.75915 3.00145 5.45887 3.54086 4.49986 4.49986C3.54086 5.45887 3.00145 6.75915 3 8.11538V16.8846C3.00145 18.2409 3.54086 19.5411 4.49986 20.5001C5.45887 21.4591 6.75915 21.9985 8.11538 22H16.8846C18.2409 21.9985 19.5411 21.4591 20.5001 20.5001C21.4591 19.5411 21.9985 18.2409 22 16.8846V8.11538C21.9985 6.75915 21.4591 5.45887 20.5001 4.49986C19.5411 3.54086 18.2409 3.00145 16.8846 3ZM12.5 16.8846C11.6328 16.8846 10.7851 16.6275 10.064 16.1457C9.34299 15.6639 8.781 14.9791 8.44914 14.1779C8.11728 13.3767 8.03045 12.4951 8.19963 11.6446C8.36882 10.7941 8.78641 10.0128 9.39961 9.39961C10.0128 8.78641 10.7941 8.36882 11.6446 8.19963C12.4951 8.03045 13.3767 8.11728 14.1779 8.44914C14.9791 8.781 15.6639 9.34299 16.1457 10.064C16.6275 10.7851 16.8846 11.6328 16.8846 12.5C16.8834 13.6625 16.4211 14.777 15.5991 15.5991C14.777 16.4211 13.6625 16.8834 12.5 16.8846ZM17.9808 8.11538C17.764 8.11538 17.552 8.0511 17.3718 7.93065C17.1915 7.8102 17.051 7.63901 16.9681 7.43871C16.8851 7.23841 16.8634 7.01801 16.9057 6.80538C16.948 6.59275 17.0524 6.39743 17.2057 6.24413C17.359 6.09083 17.5543 5.98643 17.7669 5.94414C17.9796 5.90184 18.2 5.92355 18.4002 6.00652C18.6005 6.08948 18.7717 6.22998 18.8922 6.41024C19.0126 6.5905 19.0769 6.80243 19.0769 7.01923C19.0769 7.30995 18.9614 7.58876 18.7559 7.79433C18.5503 7.9999 18.2715 8.11538 17.9808 8.11538ZM15.4231 12.5C15.4231 13.0781 15.2516 13.6433 14.9304 14.124C14.6093 14.6047 14.1527 14.9793 13.6186 15.2006C13.0845 15.4218 12.4968 15.4797 11.9297 15.3669C11.3627 15.2541 10.8419 14.9757 10.4331 14.5669C10.0243 14.1581 9.74588 13.6373 9.63309 13.0703C9.5203 12.5032 9.57819 11.9155 9.79943 11.3814C10.0207 10.8473 10.3953 10.3907 10.876 10.0696C11.3567 9.74836 11.9219 9.57692 12.5 9.57692C13.2752 9.57692 14.0187 9.88489 14.5669 10.4331C15.1151 10.9813 15.4231 11.7248 15.4231 12.5Z" />
</svg>
