<svg viewBox="0 0 24 24" fill="none" xmlns="http://www.w3.org/2000/svg">
<path d="M11.9982 1C16.5845 1 20 5.14328 20 9.93411C20 16.0122 11.9982 23 11.9982 23C11.9982 23 4 16.0122 4 9.93411C4 5.20881 7.43047 1 11.9982 1ZM11.9982 13.3721C12.7241 13.3729 13.434 13.1518 14.038 12.7368C14.642 12.3218 15.113 11.7315 15.3913 11.0407C15.6697 10.3499 15.7429 9.58949 15.6017 8.8558C15.4605 8.1221 15.1113 7.44806 14.5982 6.91889C14.0851 6.38972 13.4312 6.02922 12.7192 5.88301C12.0072 5.73681 11.2692 5.81145 10.5984 6.09751C9.92756 6.38357 9.35418 6.86819 8.95076 7.49006C8.54735 8.11193 8.33204 8.8431 8.33204 9.59107C8.33204 10.5932 8.71815 11.5543 9.40557 12.2633C10.093 12.9723 11.0255 13.3711 11.9982 13.3721Z" />
</svg>
