<svg  viewBox="0 0 24 24" xmlns="http://www.w3.org/2000/svg">
<path d="M16.6733 12.733C16.6733 12.4896 16.8706 12.2927 17.1145 12.2927C17.3585 12.2927 17.5558 12.4896 17.5558 12.733C17.5558 14.4541 16.8491 16.0204 15.7115 17.1566L15.709 17.1591C14.6687 18.1964 13.2684 18.8742 11.7187 18.9825V22.1193H13.7829C14.0268 22.1193 14.2241 22.3162 14.2241 22.5596C14.2241 22.803 14.0268 23 13.7829 23H8.77221C8.5283 23 8.33095 22.803 8.33095 22.5596C8.33095 22.3162 8.5283 22.1193 8.77221 22.1193H10.8364V18.9825C9.28594 18.8733 7.88638 18.1955 6.84612 17.1583L6.84353 17.1557C5.70592 16.0204 5 14.454 5 12.734C5 12.4906 5.19735 12.2936 5.44126 12.2936C5.68516 12.2936 5.88251 12.4906 5.88251 12.734C5.88251 14.2151 6.48924 15.5612 7.46569 16.5366C8.44386 17.5128 9.79258 18.1183 11.2767 18.1183C12.7616 18.1183 14.1105 17.5128 15.0869 16.5383C16.0651 15.5621 16.6718 14.2161 16.6718 12.735L16.6733 12.733ZM19.1175 8.40421C19.1175 8.1608 19.3148 7.96384 19.5587 7.96384C19.8026 7.96384 20 8.1608 20 8.40421V10.1829C20 10.4263 19.8026 10.6233 19.5587 10.6233C19.3148 10.6233 19.1175 10.4263 19.1175 10.1829V8.40421ZM17.4972 7.25771C17.4972 7.01429 17.6946 6.81734 17.9385 6.81734C18.1824 6.81734 18.3798 7.01429 18.3798 7.25771V11.3286C18.3798 11.572 18.1824 11.7689 17.9385 11.7689C17.6946 11.7689 17.4972 11.572 17.4972 11.3286V7.25771ZM15.877 8.40421C15.877 8.1608 16.0744 7.96384 16.3183 7.96384C16.5622 7.96384 16.7595 8.1608 16.7595 8.40421V10.1829C16.7595 10.4263 16.5622 10.6233 16.3183 10.6233C16.0744 10.6233 15.877 10.4263 15.877 10.1829V8.40421ZM14.2568 7.25771C14.2568 7.01429 14.4541 6.81734 14.698 6.81734C14.9419 6.81734 15.1393 7.01429 15.1393 7.25771V11.3286C15.1393 11.572 14.9419 11.7689 14.698 11.7689C14.4541 11.7689 14.2568 11.572 14.2568 11.3286V7.25771ZM12.6365 8.40421C12.6365 8.1608 12.8339 7.96384 13.0778 7.96384C13.3217 7.96384 13.519 8.1608 13.519 8.40421V10.1829C13.519 10.4263 13.3217 10.6233 13.0778 10.6233C12.8339 10.6233 12.6365 10.4263 12.6365 10.1829V8.40421ZM14.2568 12.7321C14.2568 12.4887 14.4541 12.2918 14.698 12.2918C14.9419 12.2918 15.1393 12.4887 15.1393 12.7321C15.1393 13.7918 14.7049 14.756 14.0051 15.4543L13.9801 15.4776C13.282 16.1622 12.3271 16.5862 11.2774 16.5862C10.2165 16.5862 9.25131 16.1519 8.55063 15.4535C7.84997 14.7559 7.4156 13.7918 7.4156 12.7322V5.85399C7.4156 4.79521 7.84997 3.83196 8.54978 3.1336C9.24958 2.43349 10.2148 2 11.2775 2C12.3393 2 13.3054 2.43349 14.0052 3.1319C14.705 3.83029 15.1394 4.79446 15.1394 5.85412C15.1394 6.09753 14.942 6.29448 14.6981 6.29448C14.4542 6.29448 14.2569 6.09753 14.2569 5.85412C14.2569 5.03703 13.9216 4.29304 13.3821 3.75465C12.8426 3.21626 12.0971 2.88166 11.2784 2.88166C10.4597 2.88166 9.71418 3.21623 9.17471 3.75552C8.6352 4.29394 8.29996 5.03706 8.29996 5.85498V12.7332C8.29996 13.5503 8.6352 14.2934 9.17558 14.8326C9.71422 15.3719 10.4588 15.7065 11.2785 15.7065C12.0886 15.7065 12.8255 15.3805 13.3633 14.8542L13.3822 14.8335C13.9218 14.2951 14.257 13.5511 14.257 12.734L14.2568 12.7321Z" />
</svg>
