<svg viewBox="0 0 24 24" xmlns="http://www.w3.org/2000/svg">
<path fill-rule="evenodd" clip-rule="evenodd" d="M12 1C18.0752 1 23 5.92479 23 12C23 18.0752 18.0752 23 12 23C5.92479 23 1 18.0752 1 12C1 5.92479 5.92479 1 12 1ZM17.077 18.3338C13.8572 20.9177 9.19318 20.6711 6.26105 17.739C2.70143 14.1793 3.2094 8.2882 7.30595 5.37659C7.46003 5.26641 7.49644 5.05256 7.38626 4.8985C7.27607 4.74443 7.06223 4.70801 6.90816 4.81819C5.76427 5.63058 4.82306 6.7091 4.17484 7.96407C2.40999 11.3789 3.07765 15.5287 5.77535 18.2254C8.95748 21.4075 14.0187 21.6711 17.5074 18.8688C17.655 18.7502 17.6783 18.5345 17.5597 18.3869C17.4411 18.2394 17.2254 18.2161 17.0779 18.3347L17.077 18.3338ZM8.9876 4.45962C12.0028 3.2541 15.4523 3.97312 17.7399 6.25996C20.4852 9.00522 20.9 13.3055 18.7447 16.5195C18.6392 16.6764 18.6812 16.8893 18.839 16.9948C18.9959 17.1003 19.2088 17.0583 19.3143 16.9005C21.6526 13.4138 21.2052 8.75232 18.2265 5.77358C15.7453 3.29246 12.0074 2.51098 8.73266 3.82198C8.55711 3.89294 8.4712 4.09184 8.54217 4.26738C8.61313 4.44292 8.81203 4.52884 8.98757 4.45787L8.9876 4.45962ZM6.69433 12.86V13.5472H8.37701C8.56096 14.1355 8.85323 14.6883 9.25384 15.1627C10.7638 16.9499 13.2364 16.9499 14.7464 15.1627L14.2225 14.7191C13.6426 15.4045 12.8573 15.8154 12.0002 15.8154C10.6294 15.8154 9.56028 14.7901 9.1017 13.5462H11.4856V12.859H8.91106C8.80274 12.2931 8.80274 11.7039 8.91106 11.138H11.4856V10.4507H9.1017C9.25858 10.024 9.48362 9.62526 9.77683 9.2779C11.0113 7.8156 12.9872 7.8156 14.2227 9.2779L14.7466 8.83434C14.0341 7.99114 13.0555 7.49344 12.0003 7.49344C10.2429 7.49344 8.88333 8.82968 8.37735 10.4497H6.69467V11.1369H8.21394C8.11962 11.7056 8.11962 12.2892 8.21394 12.8579H6.69467L6.69433 12.86ZM19.292 4.70724C15.2644 0.680672 8.7356 0.680672 4.70804 4.70817C0.680472 8.73573 0.680472 15.2655 4.70804 19.2921C8.7356 23.3197 15.2644 23.3197 19.292 19.2921C23.3195 15.2645 23.3195 8.73573 19.292 4.70817V4.70724Z" />
</svg>
