<svg viewBox="0 0 24 24" fill="currentColor" xmlns="http://www.w3.org/2000/svg">
<path d="M15.8609 7.69157C15.2726 7.03614 14.24 7.03614 13.6516 7.69157L8.89642 12.989C8.6568 13.2559 8.47784 13.5816 8.36938 13.9359L7.7026 16.1644C7.6505 16.3392 7.68973 16.533 7.80739 16.6594C7.89013 16.7515 8.00351 16.8 8.11688 16.8C8.16469 16.8 8.2082 16.7904 8.25662 16.7754L10.257 16.0326C10.575 15.9159 10.8717 15.7124 11.107 15.4455L15.8622 10.148C16.1588 9.81759 16.32 9.38065 16.32 8.91503C16.32 8.44872 16.1588 8.01177 15.8622 7.6868L15.8609 7.69157ZM10.4874 14.7655C10.3434 14.9259 10.1693 15.0468 9.97752 15.1198L8.80514 15.5568L9.19736 14.2507C9.26294 14.037 9.37141 13.8431 9.51114 13.6827L11.3026 11.687L12.2782 12.7739L10.4868 14.7696L10.4874 14.7655ZM15.242 9.46878L12.8928 12.0858L11.9171 10.9989L14.2663 8.38187C14.5366 8.08079 14.9723 8.08079 15.2426 8.38187C15.3731 8.5273 15.443 8.72188 15.443 8.92532C15.443 9.12946 15.3725 9.32337 15.242 9.46878Z" />
<path d="M22.56 12C22.56 6.16787 17.8321 1.44 12 1.44C6.16787 1.44 1.44 6.16787 1.44 12C1.44 17.8321 6.16787 22.56 12 22.56V24C5.37258 24 0 18.6274 0 12C0 5.37258 5.37258 0 12 0C18.6274 0 24 5.37258 24 12C24 18.6274 18.6274 24 12 24V22.56C17.8321 22.56 22.56 17.8321 22.56 12Z" />
</svg>
