<svg viewBox="0 0 24 24"  xmlns="http://www.w3.org/2000/svg">
<path d="M14.2999 3.00164C14.1579 2.99134 14.0114 3.03563 13.8971 3.13559C13.8965 3.13623 13.8961 3.13659 13.8958 3.13696C13.6669 3.33961 13.6431 3.7012 13.8396 3.93373L19.2027 10.2743C19.2031 10.2747 19.2037 10.2753 19.2041 10.2757C19.3124 10.4034 19.4675 10.471 19.6235 10.471C19.7531 10.471 19.8827 10.424 19.9855 10.3344L19.9869 10.333C20.2157 10.1304 20.2396 9.76879 20.043 9.53626L14.6799 3.19564C14.5806 3.078 14.4419 3.01203 14.2999 3.00173L14.2999 3.00164ZM9.96872 3.00301C9.82733 3.01768 9.6912 3.08702 9.595 3.2073L4.51385 9.54792C4.32195 9.78684 4.35587 10.1478 4.59151 10.3447V10.3453V10.346C4.69496 10.432 4.82136 10.4709 4.94212 10.4709C5.10108 10.4709 5.26238 10.4003 5.37172 10.264L10.4529 3.92334C10.6455 3.68377 10.6112 3.32312 10.3752 3.12657C10.2577 3.02888 10.1101 2.98824 9.96846 3.00291L9.96872 3.00301ZM1.55535 11.0696C1.38532 11.0696 1.22464 11.1496 1.11924 11.2856C1.01311 11.4225 0.975264 11.6029 1.01606 11.7711V11.7717V11.7723L3.2782 21.0056C3.27954 21.0106 3.28052 21.0136 3.28115 21.0166L3.28052 21.0146C3.30793 21.1125 3.36996 21.3475 3.53187 21.5691C3.69379 21.7907 3.98556 22 4.37867 22H19.6226C20.0163 22 20.3084 21.7901 20.4706 21.5664C20.6329 21.3428 20.6946 21.1059 20.7229 21.0029C20.7233 21.0023 20.7243 20.9996 20.7249 20.9969L20.7255 20.9949L22.9838 11.772V11.7713V11.7707C23.0252 11.6007 22.9861 11.4228 22.8816 11.2865C22.7774 11.1505 22.6172 11.0699 22.448 11.0692H22.4474H22.4468L1.55535 11.0696ZM2.26441 12.201H21.7365L19.6542 20.7078C19.6166 20.8387 19.5918 20.8667 19.5918 20.8691H4.41026C4.41089 20.8671 4.38706 20.8424 4.35019 20.7141C4.34957 20.7117 4.34957 20.7137 4.34885 20.7114L2.26441 12.201ZM10.5896 13.3754C10.285 13.3754 10.0363 13.6324 10.0363 13.9415V19.1289C10.0363 19.4381 10.2876 19.6937 10.5896 19.6937C10.8925 19.6937 11.1429 19.4371 11.1429 19.1289V13.9415C11.1429 13.6323 10.8931 13.3754 10.5896 13.3754ZM13.9775 13.3754C13.673 13.3754 13.423 13.631 13.423 13.9415V19.1289C13.423 19.4398 13.6753 19.6937 13.9775 19.6937C14.2805 19.6937 14.5309 19.4371 14.5309 19.1289V13.9415C14.5309 13.6323 14.2811 13.3754 13.9775 13.3754ZM6.00952 13.3777C5.70818 13.4127 5.48692 13.6962 5.5212 14.0039L6.08593 19.1912C6.11726 19.4784 6.35853 19.6937 6.63691 19.6937C6.64673 19.6937 6.66923 19.6947 6.69931 19.6911C7.00065 19.6561 7.22191 19.3725 7.18763 19.0649L6.6229 13.8785V13.8771C6.58996 13.5745 6.31086 13.3476 6.01344 13.3772H6.01148H6.00951L6.00952 13.3777ZM17.9877 13.3777C17.69 13.3483 17.4125 13.5796 17.3796 13.8776L16.8149 19.0649V19.0655V19.0662C16.7819 19.3728 17.002 19.657 17.3045 19.691C17.3336 19.6944 17.3561 19.6936 17.366 19.6936C17.6435 19.6936 17.8846 19.477 17.9157 19.1911V19.1897L18.4804 14.0033V14.0027V14.0021C18.5134 13.6954 18.2934 13.4112 17.9908 13.3772H17.9894H17.9881L17.9877 13.3777Z" />
</svg>
