<svg viewBox="0 0 19 18" fill="none" xmlns="http://www.w3.org/2000/svg">
<path d="M9.49557 16.1794L4.68028 17.9316C4.51149 17.9941 4.32967 18.0142 4.15109 17.9901C3.97251 17.9659 3.80278 17.8983 3.65713 17.7932C3.51148 17.6882 3.39448 17.5489 3.3166 17.3881C3.23872 17.2272 3.20241 17.0497 3.21093 16.8715L3.44988 11.7816L0.236789 7.80428C0.124993 7.66521 0.0496604 7.50092 0.0175511 7.32606C-0.0145583 7.15121 -0.00248119 6.97121 0.0527221 6.8021C0.107925 6.63299 0.204522 6.48004 0.333928 6.35683C0.463334 6.23362 0.621516 6.14399 0.794393 6.09594L5.7602 4.73806L8.59274 0.489149C8.69062 0.339071 8.82491 0.215678 8.9834 0.130228C9.1419 0.0447775 9.31952 0 9.5 0C9.68049 0 9.8581 0.0447775 10.0166 0.130228C10.1751 0.215678 10.3094 0.339071 10.4073 0.489149L13.2399 4.73806L18.2056 6.09594C18.3785 6.14399 18.5367 6.23362 18.6661 6.35683C18.7955 6.48004 18.8921 6.63299 18.9473 6.8021C19.0025 6.97121 19.0146 7.15121 18.9825 7.32606C18.9503 7.50092 18.8751 7.66521 18.7633 7.80428L15.5501 11.7816L15.7891 16.8715C15.7976 17.0497 15.7613 17.2272 15.6834 17.3881C15.6055 17.5489 15.4885 17.6882 15.3429 17.7932C15.1972 17.8983 15.0275 17.9659 14.8489 17.9901C14.6703 18.0142 14.4885 17.9941 14.3197 17.9316L9.49557 16.1794Z" />
</svg>
