<svg  viewBox="0 0 24 24"  xmlns="http://www.w3.org/2000/svg">
  <path d="M22 10.0219C20.1323 10.0264 18.3104 9.43628 16.7917 8.3349V16.0162C16.7912 17.4389 16.362 18.8275 15.5615 19.9963C14.761 21.1652 13.6273 22.0586 12.3121 22.5571C10.9969 23.0556 9.5628 23.1354 8.20161 22.7859C6.84041 22.4363 5.61698 21.6741 4.69492 20.6011C3.77285 19.5281 3.1961 18.1955 3.04177 16.7814C2.88745 15.3674 3.16292 13.9393 3.83134 12.6882C4.49975 11.437 5.52927 10.4224 6.78221 9.78004C8.03515 9.13767 9.45181 8.89815 10.8427 9.0935V12.9569C10.2063 12.7541 9.52277 12.7602 8.88991 12.9744C8.25704 13.1886 7.70716 13.5999 7.31879 14.1496C6.93042 14.6992 6.72342 15.3592 6.72735 16.0352C6.73128 16.7112 6.94594 17.3686 7.34067 17.9136C7.73541 18.4586 8.29003 18.8633 8.92534 19.07C9.56065 19.2766 10.2442 19.2745 10.8783 19.0641C11.5123 18.8537 12.0646 18.4457 12.4561 17.8983C12.8477 17.3509 13.0585 16.6922 13.0585 16.0162V1H16.7917C16.7891 1.3194 16.8155 1.63836 16.8706 1.95286C17.0004 2.65492 17.2701 3.32279 17.6633 3.91562C18.0566 4.50845 18.565 5.01378 19.1577 5.40068C20.0008 5.96548 20.9892 6.26651 22 6.26629V10.0219Z" />
</svg>
