<svg viewBox="0 0 22 22" xmlns="http://www.w3.org/2000/svg">
<path d="M11 0C4.93373 0 0 4.93373 0 11C0 17.0663 4.93373 22 11 22C17.0663 22 22 17.0663 22 11C22 4.93373 17.0663 0 11 0ZM11 20.6745C5.66546 20.6745 1.3255 16.3348 1.3255 11C1.3255 5.66523 5.66523 1.3255 11 1.3255C16.3348 1.3255 20.6745 5.66523 20.6745 11C20.6745 16.3348 16.3348 20.6745 11 20.6745Z" />
<path d="M15.4733 11.1794H10.8263V5.16262C10.8263 4.79737 10.5298 4.49982 10.1635 4.49982C9.79824 4.49982 9.50069 4.79632 9.50069 5.16262V11.8421C9.50069 12.2074 9.79719 12.5049 10.1635 12.5049H15.4735C15.8388 12.5049 16.1363 12.2084 16.1363 11.8421C16.1363 11.4769 15.8398 11.1793 15.4735 11.1793L15.4733 11.1794Z" />
</svg>
