<svg viewBox="0 0 32 32" xmlns="http://www.w3.org/2000/svg">
<path d="M6.32923 26.2677C5.18123 26.2677 4.08021 25.8119 3.26813 25.0004C2.45606 24.189 1.99939 23.0883 1.99848 21.9403C1.99926 20.792 2.45577 19.6909 3.26778 18.8789C4.07978 18.0669 5.18088 17.6104 6.32923 17.6096C6.37059 17.6096 6.41049 17.6096 6.45185 17.6096L7.50826 15.7182C7.11965 15.6439 6.72487 15.6068 6.32923 15.6072C2.83982 15.6072 0 18.4461 0 21.9365C0 25.4268 2.83982 28.2623 6.32923 28.2623C7.65623 28.2613 8.94943 27.8437 10.0264 27.0684C11.1034 26.2932 11.9098 25.1993 12.3319 23.9412H10.1656C9.79953 24.6424 9.24845 25.2299 8.57215 25.64C7.89585 26.0501 7.12016 26.2672 6.32923 26.2677Z" />
<path d="M25.6732 15.6111C25.6109 15.6111 25.5481 15.6111 25.4868 15.615L26.2308 17.648C27.2727 17.785 28.2294 18.2958 28.9228 19.0853C29.6163 19.8749 29.9992 20.8895 30.0005 21.9403C29.9996 23.0877 29.5434 24.1879 28.7321 24.9992C27.9207 25.8106 26.8206 26.2668 25.6732 26.2677C24.5256 26.267 23.4252 25.8109 22.6137 24.9996C21.8021 24.1882 21.3458 23.0879 21.3449 21.9403C21.3436 20.8625 21.7468 19.8234 22.4748 19.0285L21.7293 16.9945C20.9852 17.5863 20.3844 18.3384 19.9715 19.1947C19.5587 20.0511 19.3445 20.9896 19.345 21.9403C19.345 25.4297 22.1848 28.2661 25.6742 28.2661C27.3511 28.2637 28.9587 27.5964 30.1445 26.4107C31.3303 25.2249 31.9976 23.6173 32 21.9403C32.0015 18.45 29.1631 15.6111 25.6732 15.6111Z" />
<path d="M21.6651 13.9096L24.2655 21.0052C24.0812 21.2821 23.983 21.6073 23.9833 21.94C23.9833 22.3883 24.1614 22.8183 24.4784 23.1353C24.7954 23.4523 25.2254 23.6304 25.6737 23.6304C26.1221 23.6304 26.5521 23.4523 26.8691 23.1353C27.1861 22.8183 27.3642 22.3883 27.3642 21.94C27.3639 21.5739 27.2449 21.2177 27.0249 20.9251C26.8049 20.6325 26.4959 20.4191 26.1443 20.3171L22.8578 11.3491V7.84897H25.5273C25.9693 7.84846 26.393 7.67266 26.7055 7.36013C27.0181 7.0476 27.1939 6.62386 27.1944 6.18188V4.00045C27.1944 3.86905 27.1686 3.73893 27.1183 3.61752C27.0681 3.49611 26.9944 3.3858 26.9015 3.29289C26.8086 3.19997 26.6983 3.12628 26.5769 3.07603C26.4554 3.02577 26.3253 2.99994 26.1939 3C25.9286 3 25.6741 3.10541 25.4865 3.29303C25.2989 3.48065 25.1935 3.73512 25.1935 4.00045V5.84954H21.8574C21.5921 5.84954 21.3377 5.95487 21.1501 6.14239C20.9625 6.3299 20.857 6.58425 20.8569 6.8495V10.5272H12.8319L12.0212 8.34336C12.9389 7.8626 13.7598 7.19985 14.2664 6.53661C14.3257 6.45918 14.3623 6.3667 14.3718 6.2696C14.3814 6.17251 14.3636 6.07467 14.3204 5.98716C14.2773 5.89964 14.2106 5.82594 14.1277 5.77436C14.0449 5.72278 13.9494 5.69539 13.8518 5.69528H6.96251C6.87986 5.69508 6.79833 5.7145 6.72465 5.75195C6.65097 5.7894 6.58723 5.84381 6.53868 5.9107C6.49013 5.97759 6.45815 6.05505 6.44538 6.13671C6.4326 6.21837 6.43939 6.3019 6.46519 6.38042C6.95179 7.81102 8.0778 9.06402 9.45731 9.06402C9.68364 9.063 9.90951 9.04363 10.1327 9.00611L11.0397 11.4488L6.11923 20.2651C5.71066 20.3161 5.33477 20.5145 5.0622 20.8231C4.78963 21.1317 4.63914 21.5292 4.63899 21.9409C4.63899 22.3893 4.81708 22.8192 5.1341 23.1363C5.45112 23.4533 5.88109 23.6314 6.32943 23.6314C6.59482 23.6318 6.85657 23.5695 7.09333 23.4496C7.3301 23.3297 7.53519 23.1556 7.69191 22.9414H14.643C14.7998 23.1555 15.0049 23.3295 15.2417 23.4494C15.4784 23.5693 15.7401 23.6317 16.0055 23.6314C16.4538 23.6314 16.8838 23.4533 17.2008 23.1363C17.5178 22.8192 17.6959 22.3893 17.6959 21.9409C17.6958 21.7007 17.6442 21.4632 17.5446 21.2446L21.6651 13.9096ZM20.1469 12.5272L16.188 19.5673L13.5744 12.5281L20.1469 12.5272ZM11.955 13.914L14.5632 20.9395H8.03351L11.955 13.914Z" />
</svg>
