<svg viewBox="0 0 32 32" xmlns="http://www.w3.org/2000/svg">
<path d="M20.306 5.95154C20.306 6.33918 20.2296 6.72303 20.0812 7.08117C19.9329 7.4393 19.7154 7.7647 19.4413 8.03878C19.1672 8.31286 18.8417 8.53026 18.4835 8.67856C18.1254 8.82686 17.7416 8.90315 17.3539 8.90308C16.9663 8.90315 16.5824 8.82685 16.2243 8.67855C15.8662 8.53024 15.5408 8.31284 15.2667 8.03875C14.9926 7.76466 14.7752 7.43926 14.6269 7.08113C14.4786 6.723 14.4023 6.33916 14.4023 5.95154C14.4023 5.56392 14.4786 5.18008 14.6269 4.82196C14.7752 4.46383 14.9926 4.13842 15.2667 3.86433C15.5408 3.59024 15.8662 3.37284 16.2243 3.22454C16.5824 3.07623 16.9663 2.99993 17.3539 3C17.7416 2.99993 18.1254 3.07623 18.4835 3.22452C18.8417 3.37282 19.1672 3.59022 19.4413 3.8643C19.7154 4.13839 19.9329 4.46378 20.0812 4.82191C20.2296 5.18004 20.306 5.56389 20.306 5.95154Z" />
<path d="M13.2341 13.8421C13.2369 13.8298 13.2364 13.8169 13.2325 13.8049C13.2286 13.7928 13.2216 13.7821 13.2121 13.7737C13.2026 13.7653 13.191 13.7597 13.1786 13.7573C13.1662 13.755 13.1533 13.7561 13.1414 13.7604L11.5387 14.3599C11.5054 14.3731 11.4739 14.3906 11.4451 14.4119C11.4027 14.4442 11.3486 14.5932 11.2827 14.8589C10.9469 16.2244 10.7548 17.0223 10.7066 17.2526C10.5994 17.773 10.4721 18.1133 10.3247 18.2736C9.84802 18.794 9.05759 18.7648 8.46593 18.438C8.04964 18.208 7.93409 17.568 8.03348 17.1444C8.464 15.3103 8.74501 14.1262 8.87649 13.5923C8.88013 13.5762 8.90406 13.4633 8.94621 13.2536C9.02396 12.8243 9.22965 12.4285 9.5363 12.1181C9.79909 11.8553 10.1202 11.7304 10.5333 11.5223C10.6225 11.4779 11.3347 11.1639 12.67 10.5804C13.1326 10.3785 13.68 9.67759 14.4393 9.50691C15.3215 9.31125 16.1176 9.39607 16.8277 9.76137C17.0196 9.86059 17.2116 10.0351 17.4038 10.2849C17.5717 10.5034 17.7545 10.7697 17.9523 11.0836C18.2111 11.4947 18.3859 11.7638 18.4768 11.8907C18.4921 11.9095 19.115 12.8203 20.3455 14.6232C20.377 14.6689 20.4193 14.7061 20.4688 14.7314C20.7189 14.8584 20.9879 14.9439 21.2655 14.9843C21.2999 14.9894 21.3336 14.9987 21.3659 15.0119C21.8117 15.1909 22.1381 15.3153 22.3452 15.385C22.8021 15.5377 23.0998 15.6731 23.2382 15.7914C23.7835 16.2598 23.897 17.0892 23.4266 17.6377C23.1534 17.9546 22.5857 18.1997 22.1366 18.0462C21.7879 17.927 21.4877 17.8328 21.2348 17.761C20.9461 17.6788 20.0499 17.4103 18.546 16.9555C18.3178 16.8817 18.1197 16.7356 17.982 16.5392C17.6146 16.0497 17.325 15.6507 17.1134 15.3423C17.109 15.3359 17.1027 15.3309 17.0955 15.3279C17.0882 15.3249 17.0803 15.3241 17.0726 15.3255C17.0649 15.3269 17.0578 15.3306 17.0521 15.3359C17.0464 15.3413 17.0424 15.3483 17.0406 15.3559L16.375 18.1581C16.3721 18.1702 16.3721 18.1828 16.3752 18.1949C16.3783 18.2069 16.3843 18.2181 16.3927 18.2273L18.0579 20.0782C18.6099 20.6898 19.1738 21.3025 19.7496 21.9162C19.9396 22.1202 20.0514 22.3158 20.1878 22.5406C20.2041 22.5672 20.2172 22.5957 20.2268 22.6254C20.7617 24.2865 21.1767 25.5407 21.4715 26.3882C21.7099 27.0756 21.5236 27.7017 20.9871 28.1606C20.6936 28.4097 20.3073 28.5532 19.8282 28.591C19.4187 28.6222 18.9717 28.374 18.7453 28.005C18.6128 27.7975 18.5065 27.5743 18.4289 27.3405C18.1053 26.2842 17.8104 25.2908 17.5443 24.3604C17.3336 23.6214 17.0026 23.2514 16.4229 22.5635C15.8432 21.8756 15.3192 21.2527 14.8691 20.7141C14.8621 20.7052 14.8527 20.6985 14.842 20.6948C14.8313 20.6911 14.8198 20.6906 14.8088 20.6933C14.7978 20.696 14.7879 20.7018 14.7801 20.71C14.7723 20.7182 14.7671 20.7285 14.765 20.7396C14.7501 20.8055 14.6184 21.3205 14.3701 22.2846C14.2246 22.8667 13.974 23.4172 13.6306 23.9092C13.5479 24.0263 13.4516 24.1694 13.3402 24.3421C13.0558 24.7834 12.3486 25.8363 11.2187 27.5008C11.0355 27.7709 10.945 27.8515 10.7628 28.1153C10.6457 28.2837 10.4834 28.4154 10.2945 28.4952C9.77413 28.7238 9.26644 28.6871 8.7714 28.3849C8.31139 28.1055 8.17294 27.5991 8.23695 27.1069C8.25707 26.9466 8.37849 26.688 8.60121 26.331C9.8501 24.3352 10.6355 23.079 10.9575 22.5625C11.0808 22.3478 11.1708 22.1157 11.2244 21.874C11.4006 21.184 11.5725 20.5133 11.7401 19.8618C12.2376 17.9229 12.7338 15.9186 13.2288 13.8489L13.2341 13.8421Z" />
</svg>
