<svg width="20" height="21" viewBox="0 0 20 21" fill="none" xmlns="http://www.w3.org/2000/svg">
<path d="M15.4545 15.7882C15.4545 15.2861 15.0475 14.8791 14.5454 14.8791H5.45456C4.95249 14.8791 4.54541 15.2861 4.54539 15.7882V17.6064C4.54539 18.1085 4.95248 18.5155 5.45456 18.5155H14.5454C15.0475 18.5155 15.4545 18.1085 15.4545 17.6064V15.7882ZM19.0909 9.42457L19.1377 9.42574C19.618 9.4501 20 9.84726 20 10.3336C20 10.82 19.618 11.2173 19.1377 11.2416L19.0909 11.2428H0.909057C0.406979 11.2428 0 10.8357 0 10.3336C1.88925e-05 9.83156 0.406991 9.42457 0.909057 9.42457H19.0909ZM13.6364 3.06096C13.6364 2.55888 13.2293 2.15179 12.7272 2.15179H7.27267C6.77061 2.15181 6.36361 2.55889 6.36361 3.06096V4.87907C6.36361 5.38114 6.77061 5.78822 7.27267 5.78823H12.7272C13.2293 5.78823 13.6364 5.38115 13.6364 4.87907V3.06096ZM17.2727 17.6064C17.2727 19.1126 16.0517 20.3337 14.5454 20.3337H5.45456C3.94832 20.3337 2.72728 19.1126 2.72728 17.6064V15.7882C2.7273 14.282 3.94833 13.0609 5.45456 13.0609H14.5454C16.0517 13.0609 17.2727 14.282 17.2727 15.7882V17.6064ZM15.4545 4.87907C15.4545 6.3853 14.2335 7.60635 12.7272 7.60635H7.27267C5.76645 7.60633 4.54539 6.38529 4.54539 4.87907V3.06096C4.54539 1.55473 5.76645 0.333698 7.27267 0.333679H12.7272C14.2335 0.333679 15.4545 1.55472 15.4545 3.06096V4.87907Z" fill="black"/>
</svg>
