<svg width="21" height="21" viewBox="0 0 21 21" fill="none" xmlns="http://www.w3.org/2000/svg">
<path d="M15.6992 15.7568C15.6992 15.2895 15.3204 14.9106 14.8531 14.9106H5.81454C5.34721 14.9106 4.96833 15.2895 4.96832 15.7568V17.5645C4.96832 18.0318 5.34721 18.4107 5.81454 18.4107H14.8531C15.3204 18.4107 15.6992 18.0318 15.6992 17.5645V15.7568ZM13.8915 6.71827C13.8915 6.25096 13.5127 5.87208 13.0454 5.87206H7.62224C7.15491 5.87206 6.77603 6.25094 6.77603 6.71827V8.52598C6.77603 8.99331 7.15491 9.37219 7.62224 9.37219H13.0454C13.5127 9.37217 13.8915 8.99329 13.8915 8.52598V6.71827ZM19.3723 0.333679L19.4217 0.334919C19.9298 0.360661 20.3337 0.780718 20.3337 1.29517C20.3337 1.80961 19.9298 2.22967 19.4217 2.25541L19.3723 2.25665H1.29523C0.764192 2.25665 0.33374 1.8262 0.33374 1.29517C0.33374 0.764131 0.764192 0.333679 1.29523 0.333679H19.3723ZM17.6222 17.5645C17.6222 19.0939 16.3824 20.3337 14.8531 20.3337H5.81454C4.28514 20.3337 3.04524 19.0939 3.04524 17.5645V15.7568C3.04524 14.2274 4.28514 12.9876 5.81454 12.9876H14.8531C16.3824 12.9876 17.6222 14.2274 17.6222 15.7568V17.5645ZM15.8145 8.52598C15.8145 10.0554 14.5747 11.2951 13.0454 11.2952H7.62224C6.09284 11.2952 4.85294 10.0554 4.85294 8.52598V6.71827C4.85294 5.18887 6.09284 3.94908 7.62224 3.94908H13.0454C14.5747 3.94911 15.8145 5.18889 15.8145 6.71827V8.52598Z" fill="black"/>
</svg>
