<svg width="20" height="21" viewBox="0 0 20 21" fill="none" xmlns="http://www.w3.org/2000/svg">
<path d="M19.0909 18.5155L19.1377 18.5166C19.618 18.541 20 18.9382 20 19.4246C20 19.911 19.618 20.3081 19.1377 20.3325L19.0909 20.3337H0.909057C0.406991 20.3337 1.97917e-05 19.9267 0 19.4246C0 18.9225 0.406979 18.5155 0.909057 18.5155H19.0909ZM15.4545 12.1518C15.4545 11.6498 15.0475 11.2428 14.5454 11.2428H5.45456C4.95248 11.2428 4.54539 11.6498 4.54539 12.1518V13.9701C4.54541 14.4721 4.95249 14.8791 5.45456 14.8791H14.5454C15.0475 14.8791 15.4545 14.4721 15.4545 13.9701V12.1518ZM13.6364 3.06096C13.6364 2.55888 13.2293 2.15179 12.7272 2.15179H7.27267C6.77061 2.15181 6.36361 2.55889 6.36361 3.06096V4.87907C6.36361 5.38114 6.77061 5.78822 7.27267 5.78823H12.7272C13.2293 5.78823 13.6364 5.38115 13.6364 4.87907V3.06096ZM17.2727 13.9701C17.2727 15.4763 16.0517 16.6973 14.5454 16.6973H5.45456C3.94833 16.6973 2.7273 15.4763 2.72728 13.9701V12.1518C2.72728 10.6456 3.94832 9.42457 5.45456 9.42457H14.5454C16.0517 9.42457 17.2727 10.6456 17.2727 12.1518V13.9701ZM15.4545 4.87907C15.4545 6.3853 14.2335 7.60635 12.7272 7.60635H7.27267C5.76645 7.60633 4.54539 6.38529 4.54539 4.87907V3.06096C4.54539 1.55473 5.76645 0.333698 7.27267 0.333679H12.7272C14.2335 0.333679 15.4545 1.55472 15.4545 3.06096V4.87907Z" fill="black"/>
</svg>
